<svg viewBox="0 0 24 24" fill="none" xmlns="http://www.w3.org/2000/svg">
  <path d="M12 3C12.5523 3 13 3.44772 13 4V12C13 12.5523 12.5523 13 12 13C11.4477 13 11 12.5523 11 12V4C11 3.44772 11.4477 3 12 3Z" fill="#f38ba8"/>
  <path d="M18.3639 5.63604C18.7545 6.02656 18.7545 6.65973 18.3639 7.05025C15.8492 9.56497 15.8492 13.6777 18.3639 16.1924C18.5515 16.38 18.5515 16.66 18.3639 16.8476C15.0503 20.1612 9.70711 20.1612 6.39348 16.8476C3.07985 13.534 3.07985 8.19078 6.39348 4.87715C6.58111 4.68951 6.58111 4.40951 6.39348 4.22188C6.00296 3.83136 6.00296 3.19819 6.39348 2.80767C6.78401 2.41714 7.41717 2.41714 7.8077 2.80767C8.19822 3.19819 8.19822 3.83136 7.8077 4.22188C5.27461 6.75497 5.27461 10.9698 7.8077 13.5029C10.3408 16.036 14.5556 16.036 17.0887 13.5029C17.2763 13.3153 17.5563 13.3153 17.7439 13.5029C18.1344 13.8934 18.7676 13.8934 19.1581 13.5029C19.5487 13.1124 19.5487 12.4792 19.1581 12.0887C16.6251 9.55559 16.6251 5.34078 19.1581 2.80767C19.3458 2.62003 19.3458 2.34003 19.1581 2.1524" fill="#f38ba8"/>
  <circle cx="12" cy="12" r="8" stroke="#f38ba8" stroke-width="2" stroke-linecap="round" stroke-dasharray="1 3"/>
</svg>
